<svg width="24" height="24" viewBox="0 0 24 24" fill="none" xmlns="http://www.w3.org/2000/svg">
<path d="M15.7124 16.773L7.22714 8.28771C6.93723 7.99779 6.93723 7.51696 7.22714 7.22705C7.51706 6.93713 7.99789 6.93713 8.2878 7.22705L16.7731 15.7123C17.063 16.0022 17.063 16.4831 16.7731 16.773C16.4832 17.0629 16.0023 17.0629 15.7124 16.773Z" fill="white"/>
<path d="M7.22652 16.773C6.9366 16.4831 6.9366 16.0022 7.22652 15.7123L15.7118 7.22705C16.0017 6.93713 16.4825 6.93713 16.7725 7.22705C17.0624 7.51696 17.0624 7.99779 16.7725 8.28771L8.28718 16.773C7.99726 17.0629 7.51643 17.0629 7.22652 16.773Z" fill="white"/>
</svg>
