<svg width="21" height="20" viewBox="0 0 21 20" fill="none" xmlns="http://www.w3.org/2000/svg">
<path d="M10.026 2.64914e-07C5.13293 -0.000628249 0.961816 3.54799 0.1784 8.37793C-0.605016 13.2079 2.2306 17.893 6.873 19.439C7.373 19.529 7.552 19.222 7.552 18.958C7.552 18.721 7.544 18.093 7.541 17.258C4.766 17.858 4.18 15.92 4.18 15.92C3.99732 15.317 3.60458 14.7993 3.073 14.461C2.173 13.842 3.142 13.856 3.142 13.856C3.78268 13.9438 4.34655 14.3235 4.669 14.884C4.94194 15.3803 5.40176 15.747 5.94631 15.9026C6.49085 16.0583 7.07502 15.99 7.569 15.713C7.61542 15.207 7.84054 14.7341 8.204 14.379C5.99 14.128 3.662 13.272 3.662 9.449C3.64971 8.4602 4.0169 7.5043 4.688 6.778C4.38435 5.91731 4.42011 4.97325 4.788 4.138C4.788 4.138 5.625 3.869 7.53 5.159C9.16385 4.71101 10.8882 4.71101 12.522 5.159C14.428 3.868 15.264 4.138 15.264 4.138C15.6336 4.97286 15.6694 5.91757 15.364 6.778C16.0376 7.50423 16.4044 8.46264 16.388 9.453C16.388 13.286 14.058 14.128 11.836 14.375C12.3153 14.8651 12.5611 15.5373 12.511 16.221C12.511 17.555 12.499 18.631 12.499 18.958C12.499 19.225 12.677 19.535 13.186 19.437C17.8265 17.8884 20.659 13.203 19.874 8.37432C19.089 3.54565 14.9181 -0.00111917 10.026 2.64914e-07Z" fill="white"/>
</svg>
