<svg width="18" height="18" viewBox="0 0 18 18" fill="none" xmlns="http://www.w3.org/2000/svg">
<path d="M16.362 17.993H1.638C0.737846 17.9919 0.00855413 17.2622 0.00800323 16.362V1.638C0.00910522 0.738228 0.738236 0.00909759 1.638 0.00799561H16.361C17.2611 0.00909462 17.9908 0.737905 17.993 1.638V16.362C17.9919 17.2623 17.2623 17.9919 16.362 17.993ZM3.673 6.67L3.285 8.1H4.563L3.737 11.466C3.67631 11.7322 3.6428 12.004 3.637 12.277C3.59052 12.7164 3.74777 13.1529 4.06378 13.4617C4.3798 13.7705 4.8198 13.9176 5.258 13.861C6.18777 13.8207 7.02295 13.2804 7.441 12.449L7.114 13.749H8.925L9.958 9.608C10.218 8.54799 10.73 8.008 11.477 8.008C11.7424 7.98819 12.0031 8.08596 12.1901 8.27541C12.377 8.46486 12.4713 8.72686 12.448 8.99199C12.4506 9.18894 12.422 9.38506 12.363 9.573L11.835 11.479C11.7589 11.7429 11.7205 12.0163 11.721 12.291C11.6924 12.7297 11.8604 13.1585 12.1794 13.4611C12.4984 13.7636 12.9354 13.9087 13.372 13.857C14.402 13.857 15.12 13.157 15.509 11.776L14.802 11.503C14.526 12.292 14.232 12.676 13.902 12.676C13.661 12.676 13.534 12.509 13.534 12.192C13.5408 12.0257 13.5659 11.8607 13.609 11.7L14.129 9.842C14.2469 9.4597 14.3076 9.06206 14.309 8.66199C14.3685 8.1304 14.2011 7.59835 13.848 7.19653C13.495 6.79471 12.9888 6.56035 12.454 6.551C11.4058 6.69414 10.5008 7.35691 10.048 8.31299L10.408 6.696H7.62L7.229 8.09599H8.523L7.723 11.284C7.44365 12.0672 6.72659 12.6103 5.897 12.667C5.86619 12.6675 5.83539 12.6651 5.805 12.66C5.562 12.603 5.421 12.51 5.421 12.208C5.42667 11.9584 5.46362 11.7104 5.531 11.47L6.747 6.67H3.673ZM6.018 3.508C5.62858 3.508 5.26875 3.71575 5.07404 4.053C4.87933 4.39024 4.87933 4.80575 5.07404 5.143C5.26875 5.48024 5.62858 5.688 6.018 5.688V5.663C6.30955 5.66536 6.59023 5.55251 6.799 5.349C7.00369 5.14689 7.11801 4.87064 7.116 4.583C7.10832 3.98351 6.61752 3.50299 6.018 3.508Z" fill="white"/>
</svg>
