<svg width="69" height="33" viewBox="0 0 69 33" fill="none" xmlns="http://www.w3.org/2000/svg">
<path d="M6.91892 32V11.6757L19.5 30.5C19.5 30.5 18 25 20.4108 20.3676C22.5 14 27.3297 13 27.3297 13V0H20.4108C20.4108 0 20.4108 12.4135 20.4108 20.3676C15.1419 12.4135 6.91892 0 6.91892 0H0V32H6.91892Z" fill="white"/>
<path d="M36.5903 22.2472L38.7592 31.5617L36.7258 32.3151L35.5058 26.4935C35.3477 27.1328 35.0991 27.7948 34.7602 28.4797C34.4439 29.1646 34.0373 29.7924 33.5402 30.3632C33.0657 30.9111 32.4896 31.3677 31.8118 31.733C31.1566 32.0754 30.4111 32.2466 29.5751 32.2466C28.084 32.2466 26.943 31.7672 26.1522 30.8084C25.3841 29.8267 25 28.4797 25 26.7675C25 25.7858 25.1469 24.7699 25.4406 23.7197C25.7343 22.6467 26.1748 21.6764 26.7623 20.8089C27.3497 19.9413 28.084 19.2222 28.9651 18.6515C29.8688 18.0807 30.9194 17.7953 32.1168 17.7953C32.8172 17.7953 33.4272 17.9552 33.9469 18.2748C34.4891 18.5716 34.941 18.9483 35.3025 19.4048C35.664 19.8614 35.9464 20.3523 36.1497 20.8774C36.353 21.3796 36.4999 21.8362 36.5903 22.2472ZM32.4557 20.261C32.2976 20.2153 32.1394 20.1811 31.9813 20.1582C31.8457 20.1354 31.6989 20.124 31.5407 20.124C30.8403 20.124 30.2077 20.3409 29.6429 20.7746C29.1007 21.1856 28.6375 21.7107 28.2534 22.3499C27.8919 22.9891 27.6095 23.6854 27.4062 24.4388C27.2254 25.1922 27.1351 25.8885 27.1351 26.5278C27.1351 27.5323 27.3497 28.3427 27.779 28.9591C28.2082 29.5755 28.886 29.8837 29.8123 29.8837C30.4449 29.8837 31.0324 29.6783 31.5746 29.2673C32.1168 28.8336 32.58 28.2971 32.9641 27.6578C33.3482 27.0186 33.6419 26.3223 33.8452 25.5689C34.0711 24.7927 34.1841 24.0736 34.1841 23.4115C34.1841 22.6809 34.0373 22.0417 33.7435 21.4938C33.4724 20.923 33.0432 20.5121 32.4557 20.261Z" fill="white"/>
<path d="M41.2671 31.0823V9.5766H43.3682L43.3004 19.3706C44.3171 18.7999 45.4694 18.5145 46.7572 18.5145C47.5705 18.5145 48.3726 18.6515 49.1633 18.9254C49.9767 19.1765 50.6997 19.5875 51.3323 20.1582C51.9649 20.729 52.4732 21.4709 52.8573 22.3841C53.264 23.2745 53.4673 24.3589 53.4673 25.6374C53.4673 26.5278 53.3431 27.4067 53.0946 28.2742C52.8686 29.1418 52.4845 29.918 51.9423 30.6029C51.4001 31.2878 50.6771 31.8357 49.7734 32.2466C48.8696 32.6576 47.7626 32.863 46.4522 32.863C45.8196 32.863 45.1418 32.806 44.4188 32.6918C43.6958 32.6005 42.9163 32.4293 42.0804 32.1781L41.2671 31.0823ZM43.436 22.3841V29.781C44.3849 30.1006 45.3338 30.2604 46.2827 30.2604C46.9379 30.2604 47.5592 30.1805 48.1467 30.0207C48.7341 29.8381 49.2537 29.5641 49.7056 29.1989C50.1574 28.8336 50.5189 28.3656 50.7901 27.7948C51.0612 27.2012 51.1967 26.5049 51.1967 25.7059C51.1967 24.9297 51.0725 24.2448 50.8239 23.6512C50.5754 23.0576 50.2478 22.5668 49.8411 22.1787C49.4345 21.7906 48.9713 21.4938 48.4517 21.2883C47.932 21.0828 47.4011 20.9801 46.8588 20.9801C46.2488 20.9801 45.6388 21.1057 45.0288 21.3568C44.4414 21.5851 43.9104 21.9275 43.436 22.3841Z" fill="white"/>
<path d="M66.7521 19.85L66.1421 22.0417C65.4869 21.4481 64.7865 21.0144 64.0409 20.7404C63.2953 20.4436 62.5611 20.2952 61.8381 20.2952C61.2281 20.2952 60.6407 20.4094 60.0758 20.6377C59.5336 20.8431 59.0591 21.1627 58.6525 21.5965C58.2458 22.0303 57.9182 22.5668 57.6697 23.206C57.4437 23.8453 57.3308 24.5758 57.3308 25.3977C57.3308 26.3794 57.455 27.2012 57.7035 27.8633C57.9747 28.5254 58.3249 29.0619 58.7541 29.4728C59.1834 29.8837 59.6692 30.1805 60.2114 30.3632C60.7762 30.5458 61.3523 30.6371 61.9398 30.6371C62.4594 30.6143 62.9677 30.5116 63.4648 30.3289C63.9844 30.1235 64.4476 29.8495 64.8543 29.5071C65.2609 29.1418 65.5998 28.7194 65.871 28.24C66.1421 27.7377 66.3002 27.1784 66.3454 26.562L68.2432 27.5209C68.1981 28.4341 67.9834 29.2331 67.5993 29.918C67.2378 30.6029 66.7634 31.1736 66.176 31.6302C65.6111 32.0868 64.9559 32.4293 64.2104 32.6576C63.4648 32.8859 62.6966 33 61.9059 33C61.0699 33 60.2453 32.8402 59.4319 32.5206C58.6186 32.2238 57.8956 31.7672 57.263 31.1508C56.6304 30.5344 56.122 29.7582 55.7379 28.8222C55.3539 27.8633 55.1618 26.7446 55.1618 25.4662C55.1618 24.3932 55.32 23.4115 55.6363 22.5211C55.9526 21.6079 56.3931 20.8317 56.958 20.1925C57.5228 19.5304 58.1893 19.0167 58.9575 18.6515C59.7482 18.2862 60.6068 18.1035 61.5331 18.1035C62.3238 18.1035 63.1485 18.2519 64.007 18.5487C64.8882 18.8227 65.8032 19.2565 66.7521 19.85Z" fill="white"/>
</svg>
